<svg xmlns="http://www.w3.org/2000/svg" width="512" height="512" viewBox="0 0 511.99999 511.99999"><title>Mechanical Bird</title><g stroke="#639" stroke-linecap="round" stroke-linejoin="bevel"><path d="M4.95 248.35c23.563 12.175 48.606 23.293 63.134 41.922 23.7-3.774 45.812-3.582 64.145 6.06 26.453-8.494 54.191-11.203 83.338-7.576 13.716-11.781 13.926-49.5 37.943-60.861-82.426-2.347-170.163 2.655-248.56 20.455z" fill="#639" fill-rule="evenodd" stroke-width="8"/><path d="M69.094 289.766l20.203-55.558M133.744 294.817l8.081-65.155M253.952 327.647l-40.406-39.396-19.698-59.094" fill="none" stroke-width="3"/><path d="M252.437 385.226L123.643 231.178l127.784-50.508" fill="none" stroke-width="3"/><path d="M256 49.605l-.027.254v330.317l-41.416 86.873h82.886l-41.416-86.873V49.857l-.027-.252z" fill="#639" fill-rule="evenodd" stroke-width="8"/><path d="M254.457 223.096h-12.121v17.678h12.121" fill="none" stroke-width="4"/><path d="M507.05 248.351c-23.564 12.175-48.607 23.293-63.135 41.921-23.699-3.773-45.812-3.58-64.145 6.061-26.452-8.494-54.19-11.203-83.337-7.576-13.717-11.781-13.927-49.5-37.944-60.861 82.426-2.347 170.164 2.655 248.56 20.455z" fill="#639" fill-rule="evenodd" stroke-width="8"/><path d="M442.905 289.767l-20.203-55.558M378.255 294.818l-8.081-65.155M258.047 327.648l40.406-39.396 19.698-59.094" fill="none" stroke-width="3"/><path d="M259.562 385.227l128.795-154.048-127.785-50.508" fill="none" stroke-width="3"/><path d="M257.542 223.097h12.122v17.678h-12.122" fill="none" stroke-width="4"/></g></svg>